<svg x="0px" y="0px" viewBox="0 0 76.9 100">
	<path id="bottom" d="M65.4,38.5H11.5C5.2,38.5,0,43.6,0,50v38.5C0,94.8,5.2,100,11.5,100h53.8c6.4,0,11.5-5.2,11.5-11.5V50
		C76.9,43.6,71.8,38.5,65.4,38.5z M42.3,72v8.8c0,2.1-1.7,3.8-3.8,3.8s-3.8-1.7-3.8-3.8V72c-2.3-1.3-3.8-3.8-3.8-6.6
		c0-4.3,3.4-7.7,7.7-7.7c4.3,0,7.7,3.4,7.7,7.7C46.2,68.2,44.6,70.7,42.3,72z"/>
	<path id="top" d="M23.1,30.4c0-6.1,1.5-10.8,4-13.9c2.5-3.1,5.8-4.9,11.4-4.9c5.6,0,9,1.7,11.4,4.8c2.5,3.1,4,7.9,4,14.1v4.2h11.5
	v-4.2c0-8.1-2-15.5-6.6-21.3C54.2,3.4,47,0,38.5,0C30,0,22.6,3.5,18,9.3c-4.6,5.7-6.5,13.1-6.5,21.2v4.2h11.5V30.4z"/>
</svg>